<svg xmlns="http://www.w3.org/2000/svg" viewBox="0 0 252 252"><path fill="#5DB5F2" d="m90 130 4 2 2 1 5 2v2h2l8 3 3 1 3 3 4 1 17 4 19 4c6 1 6 1 9 4 2 6 0 11-2 17l-2 5-1 3-4 11-6 14-3 9c-3 6-6 13-12 16l-3 4c-10 7-21 11-33 11h-3c-14 0-25-6-35-15l-4-7h-2a855 855 0 0 1-4-9c-3-6-4-11-5-18v-4c0-9 3-18 6-26l2-3a2460 2460 0 0 1 9-25l1-3 1-3 1-3c3-6 3-6 6-7 6-2 12 2 17 6Zm45 35a432 432 0 0 0-22 55l-1 3-1 2v5c8-2 12-5 17-12l2-2 7-15 4-11 1-3 3-8 1-3 3-7c-3-3-4-3-8-3l-3-1h-3Zm15 0 1 2Zm-90 16 1 2Zm-9 6 1 2Zm39 48 1 2 2-2h-3Z"/><path fill="#EF3D44" d="M146 7c15-1 27 2 39 12l2 2c9 8 15 21 16 33 1 14-3 24-8 37a251 251 0 0 0-11 30l-2 4c-1 3-2 4-5 6l-20 1-1 2c-1 3-1 3-4 5l-9-2-2-6-2-4-6-2-2 6h-9l-4-3a74 74 0 0 1 0-7v-2l-7-1-4 4c-5 0-9-2-12-5v-10l-8-5-5-7c0-8 3-15 6-23a486 486 0 0 0 8-22c6-16 14-30 30-38 7-3 13-5 20-5Zm2 16 7 6c8 6 14 13 15 24l1 14 5 3 3 2h6c3-11 3-22-3-32-6-9-14-14-24-17h-10ZM98 73c-2 4-3 8-2 13 4 6 9 8 16 11l3 1 11 1c5-3 7-6 9-11 0-6-1-12-5-17-6-5-10-6-17-6-6 0-11 3-15 8Zm48 15c-3 4-5 7-5 12 1 4 3 6 6 9 8 5 16 8 25 7l7-7c2-7 2-12-2-18-3-4-6-7-12-9-8 0-13 1-19 6Zm-20 20-2 3c3 3 5 3 8 4h4l-2-8c-4-1-5-1-8 1Z"/><path fill="#F14249" d="M140 24h4c8 1 13 5 19 11 8 9 9 20 9 32l2 1 2 1 2 1 3 3-1 7h4l3 3h3l2 2 3-1v2h-2v2l-4 9h-2l-1 2-4-2v-2h-2l1-5-2-1v-5l-3-1-6-3-1 3-2-1h-14l-7 2v2l-4 5-3-1v-2l-2-1c-2-4-1-8-1-12h-4v-2l-1-2v-2l-1-2-3-1-2-4-2 1h-2l-5-5 2-4-3-1 3-2-5-1-2 3-5-1 2-2 1-5h-2l1 4h-8v-2h2v-4h3v-2h-3c2-10 2-10 5-12l6-1 1-3v2l5-2v3h7v3l6 2 1-3c3-6 3-6 7-6Z"/><path fill="#65B6ED" d="m90 130 4 2 2 1 5 2v2h2l8 3 3 1 3 3 5 1 3 1h2l-2 2h-6l-4 2 2 1-1 4 2-4 3-1 3 4-1 2-2 5-2-1h-2l-4 4-1-2-3-1 2-1-1-5-3 1-1 3h-2l-1 2c-2-3-2-5-2-8l-1-3-2-1v-2h-3l-1 2v-2c-5-2-5-2-10-1v-2h-2l-1 2-3 4-3 1-3 1-2 5-4-3v3h-2l-2 6h4l-1-3 2 1 3 1v-4h3v6l2 1h-2l-1 7h-2l-2 1-1 3 1 2 7-1-1-3 6-1v5h-2c2 4 2 4 6 6v2h3l6 3v2l-3 2v2h-2v2l-4 1 1 11 1-3 5 1c-1 4-3 4-6 6-3-3-4-4-5-8v-3l-4 1-1-2-5-3-1-3-4-2 1-1h-2l-10 2h-6l-1 4c0-11 2-20 6-30l2-3a2460 2460 0 0 1 9-25l1-3 1-3 1-3c3-6 3-6 6-7 6-2 12 2 17 6Zm-30 51 1 2Zm-9 6 1 2Z"/><path fill="#F33D46" d="M146 7c15-1 27 2 39 12l2 2c8 7 13 17 14 27l-3-2v-2l-4-1-1 3v-2c-3 1-3 3-4 6l3 1 2 2v4l-3 1v3l-1 4-2 1 1 8 4 1v4l1 3-1 2-3-1-3 1-3-2v-2h-4v-8h4c3-11 3-22-3-32-6-8-13-13-23-16h-9l2 2-3-1-8 1h-5v2l-4 6-6-3 1-3-9 1-1-2-10 4c7-12 17-19 30-23l10-1Z"/><path fill="#4DADF1" d="M82 144h2v2l2-2h5l3 3h4c3 3 4 5 4 9v3h2l2-1 1-2h2l1-2v7l4 1 2-1 1-2 4 1 1-8-3 2-2 2-2-1 1-2v-5l8-1h6l1 2h-4l1 2h3l-1 7 4 1v-2l6 1-2 1v4l4-1v2h-6v-2l-6-1 1 1v5h-3l-5 2-1-2-2 2-4-2v-2l4-2-7 2-1 3 2 1v3l4 1v-3l3 1-1 4-4 1v2h-4v-3l-2-1-1 2c-4-2-4-2-5-5v-2l-5 1 4 7 2 3 2-4 1 2-1 2 2 1 1 5h-6l-3-2v2l2 1-1 9-6 1v-2l-5-1v-3h2c-3-3-5-4-9-5v-2h-2l-3-4-1-2h2v-5l-5 2v2h-2l-1 2-4-1-1 2-1-5h2v-2l4-1 1-14-3 6-4-3v2l-4 1 2-7h2v-3l3 2 2-6 1 2 1-2 3-1c4-1 4-1 5-3l1-2Z"/><path fill="#F23038" d="m150 52 15 1 1 3h-2l-1 2-1-3-3 1 2 2c2 2 2 2 2 5l1 4 2-4v3l3 1v2l2 1h3l3 1 3 1v8h4l3 3h3l2 2 3-1v2h-2v2l-4 9h-2l-1 2-4-2v-2h-2l1-5-2-1v-5l-3-1-6-3-1 3-2-1h-14l-7 2v2l-4 5-3-1v-2l-2-1c-2-4-1-8-1-12h-4v-5h3v-2h-2l2-4 3 2h4l1-7 4-1 1-4 1 4-3 4 2 3v1l2 1v5l5-5V57l-6-2 1-3Z"/><path fill="#55AFEE" d="M160 159v14l3-1c0 7-3 14-6 20l-2 1-2 4-4 8h-2v2l-1 2-2 1 2 1-2 10-2 1-2 2c-3 3-5 4-9 5l-1 5h-2l-1 3h-4l-1-2-3-1c3-6 3-6 5-7v-3l3-2c3-2 3-3 4-6v-4l3-7 3-7 1-2 2-7 1-2 2-5 2-5 6-2v-13l9-3Z"/><path fill="#70C1F5" d="m137 149 3 1a3073196827 3073196827 0 0 1 25 7c3 5 2 8 1 13-2 3-2 3-5 4h-2v-7l-2-4 2-2 1-2-2 1-5 1c-1 4-1 5 1 8h-2v6l-5 3c-2-4-1-5 1-10l-13-3-1 4-8 21h-2v-5l-2-1-1-3-1 1h-6l-1 3h-2v-2h2l-2-2-4 1v-5l-2 4-8-9h2v-2l6-2v2c1 3 1 3 4 5l4-1-1 4h4l-1-3h2l4-2-3-3v3l-4-1v-3l-3-1 1-3 3-1 2-2h4l-1 3h-4l2 1v2h2l2-2 1 3 1-2h7v-5h-2l1-2 6 2v2h6v-2l-4 1-1-5-5 2-3-3 1-6h-3v-2h10Zm13 16 1 2Z"/><path fill="#F04B51" d="M152 26c10 6 16 13 19 24l1 17 8 4-2 2c-10-4-10-4-13-8l-2 4v-2l-3-5h2l-1-4h-3l1-4 5 2 1-3-8 1v-2h-7v3l6 2c1 9 1 9-2 13l-5 3v-6l-1 1-2 1 1-5h-2l2-6-3 2v4l-5 2-5-8h3v-5h-3l1-3h3v-3h-2l-4-2v-2l-3-1 5-1 4-3h6c2 3 2 3 2 7l6-1 1-4 1-3v-7h-2v-4Z"/><path fill="#EC555A" d="m102 37 1 2-1 2h3v2h-3v4h-2v2h6l1-4h2l-1 7 4-1 1-2 6 1-1 3 2 2-3 1 4 6 5-2 1 3 3 5 2 2-1 4-1-3-3-1v-2c-6-3-13-3-19-1-5 2-9 5-11 10v7l2 6c-6 2-6 2-10 1l-1-4h-4l-1 8h-1c0-8 3-15 6-23l4-10a11167 11167 0 0 1 5-13l1-2 1-4 3-6Z"/><path fill="#89C1E6" d="m154 192 2 2c-11 31-11 31-20 39h-2l-1 3c-10 7-21 11-33 11h-3c-9 0-17-2-25-7l1-2h6l1 3h4l1 2 1-3-2-1h3l1-6-5 1 1-3h3l1-4 2 1 6 2-1-4 4-3 3 3c-4 6-4 6-7 7h-2l2 1v4h-2l1 6 9 2v-2l6-1v-14l4-1 3-1 5-1 1-3 5-5 2-2 2-2v5l-5 5-3 5-1 2h-2v3h3v3c3-1 5-1 7-4l1-5 6-1 1-3h3l1-5h2l2-8-3-1 3-1 1-4 3-3 4-10Zm-64 43 1 2 2-2h-3Z"/><path fill="#F15F65" d="M180 16c10 5 16 15 20 25l1 7-3-2v-2l-4-1-1 3v-2c-3 1-3 3-4 6l3 1 2 2v4l-3 1v3l-1 4-2 1 1 8 4 1v4l1 3-1 2-3-1-3 1-3-2v-2h-4v-8h4c3-11 3-22-3-32-5-8-12-11-20-15l7-1 4-2v2h2l1 6h2v2h2v-2h5v6l4-2-1-5-3-2v-7l-5-1 1-3Z"/><path fill="#67B9F2" d="M124 147h6l1 2h-4l1 2h3l-1 7 4 1v-2l6 1-2 1v4l4-1v2h-6v-2l-6-1 1 1v5h-3l-5 2-1-2-2 2-4-2v-2l4-2-7 2-1 3 2 1v3l4 1v-3l3 1-1 4-4 1v2h-4v-3l-2-1-1 2c-4-2-4-2-5-5v-2l-5 1 4 7 2 3 2-4 1 2-1 2 2 1h-3l-1 3-3-2-2 1-3-7h-3l-7-1v-2h-2l1-5 2 4h3c3 0 3 0 5 2v-6h6v-2l1-2v-3l4-5h2l1-2v7l4 1 2-1 1-2 4 1 1-8-3 2-2 2-2-1 1-2v-5l8-1Z"/><path fill="#4CADF1" d="M65 191h2l1 3 5 1-3 1 4 1v2l1 2h6l1 10 5 1 1 3-5-1-1 2-2-5-1 3h-2v2l-3 4h-3l-1-2-2-1v-3l-4-2v-2h-2v-2h-7l-2-1-2-4-3-1v-8h3l3-1h4l7-2Z"/><path fill="#F2333B" d="m113 25 1 2 5-2v3h7v3h2l2 1 1 3 2 2v2h-4l-2 7c-7-1-7-1-9-3v2h-2v2l5 1v5l-6 1 3-3-5-1-2 3-5-1 2-2 1-5h-2l1 4h-8v-2h2v-4h3v-2h-3c2-10 2-10 5-12l6-1v-3Z"/><path fill="#EF555B" d="M132 75h4a238668363 238668363 0 0 0 1 9c1 3 2 5 5 7l1-3h2v-2l3-3 10-1v1l-3 1c-5 2-8 4-11 9-2 4-2 6-1 10 2 4 4 5 8 7l2 1 2 1-3 2-5-2-1-2-1-2-5-1v-2l-2 1-7-1-2-1-2-1 7 3-8 2-1 3-1-5c-5-1-5-1-10 1l-1-2-3-4-1-5h-7v-2l-3-1 1-3 2 1 4 2 3 1c6 3 10 5 17 4l5-5 2-2c1-6 1-10-1-16Z"/><path fill="#63B5EE" d="M48 202h5v4l9 2v2h2v2l2 1 3 1 2 9h4l3 3c-2 3-3 4-7 5l-3 1-1 4c-8-6-8-6-9-11h-2c-8-15-8-15-8-23Z"/><path fill="#EC4A50" d="M152 10h12l-1 6h2l-1 5c5-1 5-1 8-4l1-2 7 1 1 3 3 1v5l2 1-1 1 3 2 1 6-5 1-1-5-4-1v2h-2v-2h-2l-1-6h-2c-8 1-14 0-22-3v-2h-3l-1-4 5-1 1-4Z"/><path fill="#F35D64" d="m138 38 4 1-1 3h4l1 5h4v8l6 2c1 9 1 9-2 13l-5 3v-6l-1 1-2 1 1-5h-2l2-6-3 2v4l-5 2-5-8h3v-5h-3l1-3h3v-3h-2l-4-2v-2l-3-1 5-1 4-3Z"/><path fill="#66BBF5" d="M80 173v5h-2c2 4 2 4 6 6v2h3l6 3v2l-3 2v2h-2v2l-4 1 1 11 1-3 5 1c-1 4-3 4-6 6-3-3-4-4-5-8v-3l-4 1c2-7 2-7 4-9l1-2 5 1 1-3-4 1v-4l-2-1-1-1-1 7v3l-3 1v-2l-2-5-5 2c-2-4-3-6-3-10l-4-1h6v-2l7-1-1-3 6-1Z"/><path fill="#F23B41" d="m198 44 3 4a69 69 0 0 1-1 13v8l-1 5-5-2v3l-5-1-2-4 1-5h2l-1-2 2-6h3v-4l-5-2c0-3 0-4 2-7h7Z"/><path fill="#73C7FB" d="m57 158 3 3v3l-3 3-1 5 2 1v2l4 7 2 3-3 2-1 3h7c-3 3-4 3-8 3l-3 1h-8l-1 4a74 74 0 0 1 7-33l3-7Zm-6 29 1 2Z"/><path fill="#70C2FA" d="M116 162h5l-1 3h-4l2 1v2h2l2-2 1 3 6-1c2 5 0 9-2 14l-2-1v-7h-1l-1 3h-2v2h2v2l-9 1-1 3h-2v-2h2l-2-2-4 1v-5l-2 4-8-9h2v-2l6-2v2c1 3 1 3 4 5l4-1-1 4h4l-1-3h2l4-2-3-3v3l-4-1v-3l-3-1 1-3 3-1 1-2Z"/><path fill="#5EB3ED" d="m56 168 9 1 1 5 2 1-1 3v9l2 1 1 1h4l3 5 2 1-2-6 2-1 1-3 3 1v5l4-1-1 4-5-1-1 3-2 1-1 4h-2l-2-2-3-1-1-3-4-2h2v-3h-7l3-6-1-1c-4-5-6-9-6-15Z"/><path fill="#E8575C" d="m92 62 1 4h4v3l4 1-2 3c-2 4-3 8-2 13l2 4c-6 2-6 2-10 1l-1-4h-4l-1 8h-1c0-8 3-15 6-23l4-10Z"/><path fill="#F7343B" d="m137 24 11 1 2 1h2v4h2l2 2-1 4-1 2-2 6-6 1-1-2-3-4v-2h-4l-3-5 2-4v-4Z"/><path fill="#48AAF0" d="M65 191h2l1 3 5 1-3 1 4 1v2l1 2 2 1h-2l-5 1v-4l-7 1v-2h5v-2c-4 0-5 0-8 2h2v3l3 1 1 5-4 1h-6l-3-1-2-4-3-1v-8h3l3-1h4l7-2Z"/><path fill="#F32F37" d="M137 105h3v2h2l4 3 6 3h3l1 4v3h3l1 3-4 2-2-2-8-1 2-1v-2h-3v2h-2v2h2v2l3-1v6c-6-2-6-2-7-5l-1-3-1-2-2-9v-6Z"/><path fill="#65B9F1" d="M105 226c3 1 3 2 4 5l1 2 1 2h-3l3 4-2 1v3l-6 1v2c-7 0-7 0-10-2l-1-4 1-2h2l-2-7 5-1-1-2 6 1v-2l2-1Z"/><path fill="#66BAF3" d="m62 145 4 4v3l5-1-1 6-4-3v3h-2l-2 6h4l-1-3 2 1 3 1v-4h3v6l2 1h-2l-1 7-6 2-1-3-3-2-1 1-1-2-3 1 2-6-1-3c-1-5 2-10 4-15Z"/><path fill="#62B9F4" d="m122 192 2 1-8 21-1 3-5 10v-4l1-3 1-4-3 1 2-8-2-2-3-2v-2l-2-1 4-1h-2l-1-4 4-2 2 2c2 2 2 2 5 2l3-3 2-1 1-3Z"/><path fill="#53ADED" d="M124 147h6l1 2h-4l1 2h3l-1 7 4 1v-2l6 1-2 1v4l4-1v2h-6v-2l-6-1 1 1v5h-3l-5 2-1-2-2 2-4-2v-2h10l1-7-6 1 2-5-2-2-4 4-2-1 1-2v-5l8-1Z"/><path fill="#E14952" d="m178 14 2 2-4 1v-2l-3 1-1 2-1 2-7 1 1-5h-2v-5h-11l-1 4h-2l-1-3-1 2-5-1v-2h-2V9l-7 1c12-7 34-4 45 4Z"/><path fill="#F24D55" d="m164 80 5 2 1-2 2 1 7 3v5l4 2h-2l-1 4 9 2v-2l2-4 2 1-1 3h-2l-1 7-3 1-2-3h-2l-1 10 2 1 1-2 3 2-1 5-1 3-3 5 1-11-2 1h-7l2-2c3-4 3-8 3-13s-3-9-6-12c-5-3-9-5-15-5l6-2Z"/><path fill="#58B1F0" d="m119 180 4 2 1 3 2 1h-2l1 3c0 3 0 3-2 5l-2 2-2 2-7 2-4-5 1-4 2-1 2-6 1-2 5-1v-1Z"/><path fill="#F15B61" d="M140 9v2h2v2l5 1 1-3 2 2-1 2-2 4h3v2l7 1v1l-8 1 2 2-3-1-6 1h-2c-3-2-3-2-4-5l-7-1 2-4 2 3v-2l6-2v-4l-3 2h-6l-2-2 5-1 3-1h4Z"/><path fill="#F5434B" d="M178 78h2v2h4l3 3h3l2 2 3-1v2h-2v2l-4 9h-2l-1 2-4-2v-2h-2l1-5-2-1v-5l-5-1 1-3h3v-2Z"/><path fill="#ED4148" d="m167 45 3 1c2 7 2 14 2 21l8 4-2 2c-10-4-10-4-13-8l-2 4v-2l-3-5h2l-1-4h-3l1-4 5 2 1-1v-2l2-8Z"/><path fill="#F9777B" d="m138 38 4 1-1 3h4l1 5h4v5l-3 1-4 5-5-1-1-4h-3l1-3h3v-3h-2l-4-2v-2l-3-1 5-1 4-3Z"/><path fill="#F63F46" d="m123 105 2 2-1 6h3l4 3 1 2-3 3v-2l-3 1v3h-2v2h2l-1 2-2-1 1 3-5-1 1-2c0-4-2-9-4-13l-2-1 1-3h2v-2l6-2Z"/><path fill="#ED333B" d="M152 10h12l-1 6h2l-1 5c-6 2-8 2-14 0v-2h-3l-1-4 5-1 1-4Z"/><path fill="#F6262E" d="M123 28h3v3h2l2 1 1 3 2 2v2h-4l-2 7-7-1v-8l-2-2 1-2-3-1v3l-5-1 3-5 1 2 8-1v-2Z"/><path fill="#76C2F8" d="m60 217 1 2 2 1-1 3v3l1 1 1-3h2l3-1c3-1 5-1 8 1l-2 6-7 2-1 4c-8-6-8-6-9-11h-2l-2-5 5 1 1-4Z"/><path fill="#F53C44" d="m183 113 1 4c-1 2-2 4-5 5v5h-2v2h-6c-2-2-2-2-2-5v-2h3v-2l-7 1 1-4h8v-2l9-2Z"/><path fill="#E8585F" d="M128 12v7h-3l1-3-4 4v2l-1 2h2l1-3h5v6h-4l-4 1-4 1-1-2-10 4c4-7 13-19 22-19Z"/><path fill="#7AC7F7" d="m85 186 7 2 1 3-3 2v2h-2v2l-4 1 1 11 1-3 5 1c-1 4-3 4-6 6-3-3-4-4-5-8v-3l-4 1c2-7 2-7 4-9l1-2 5 1-1-7Z"/><path fill="#EA444E" d="m95 106 3 1 1 6h-2v3l3-1v2l2-1 4 1v-2l2-1 4-3v-2l2 1v2l2 1c2 1 3 2 4 5l1 7h-2l-1 3v-9l-7-1-4 4-9-2c-3-3-3-3-3-6v-8Z"/><path fill="#7ABDE9" d="m129 160 7 2v2h10v3h-4l-3-1-4-1-1 4-8 21h-2v-5l-2-1 1-5h-2l-1-3h3l1-6c2 4 2 7 2 11l1 1 1-5 1-3-2-5-3-1v-1h7v-5h-2v-2Z"/><path fill="#F5232B" d="m101 50 3 2 6 3v6l-2 1v2l-6 1v3l-4-1c-2-2-2-4-2-7l3-9 2-1Z"/><path fill="#F15157" d="M84 87h4v2l3 1-1 1 9-1 1 3-3 3-4-1-1 3 1 1v2l3 4c-4 0-5 0-8-2l-1-2-4-4 1-10Z"/><path fill="#EE4349" d="m152 26 12 10v4l-9 2v3c-3 2-4 2-8 2l-2 2-1-6h-3l-1-2 3-3 3 3v4l6-1 1-4 1-3v-7h-2v-4Z"/><path fill="#63B3EA" d="m83 228 1 2-1 3h5l-2 11-2-1v-2h-4l-2-2h-3c-4 0-4 0-7-2 1-3 2-4 5-6h3v2h2v-2h4l1-3Z"/><path fill="#64B8F0" d="m137 149 3 1h2l-1 3h-2l1 4 6-2v5l-3 1-1 2h-4l-1-5-5 2-3-3 1-6h-3v-2h10Z"/><path fill="#F8636A" d="m189 62 1 3-2 1 1 8 4 1v4l1 3-1 2-3-1-3 1-3-2v-2h-4v-8h4l1-2v-2l1-3 3-3Z"/><path fill="#F4363E" d="m150 52 15 1 1 3h-2l-1 2-1-3-3 1 2 2c2 2 2 2 2 5l3 7h-2l-4 3-1 2v-2l-1-2-2-1 4-2-4-1-1-10-6-2 1-3Z"/><path fill="#8CC9EC" d="m149 152-2 1c1 4 2 7 5 11l2 5h-2v6l-5 3c-1-4 0-6 1-10h-2l-1-3h-3l1-4 2-1-1-4-4 1-1-4c4-3 6-2 10-1Zm1 13 1 2Z"/><path fill="#F45C62" d="m171 22 1 2h2l1 6h2v2h2v-2h5v6l8-2 1 2h-3l-1 2h-4l-1 6-4-4c-4-8-11-12-19-15l9-1 1-2Z"/><path fill="#F45156" d="m121 46 4 1v9h2l4 4h3l1 3h-6l1 3h-3l-2-4-2 1h-2l-5-5 1-3 2-1c2-3 2-4 2-8Z"/><path fill="#4CAAED" d="m80 210 2 4h5v-3h7l-4 4 2 1v4l7-2 1-3 1 2-1 2h2l-1 4h-4l-4 1v-2h-7l2-2-4-2h-7l-1-2 1-2h2l1-4Z"/><path fill="#ED2B33" d="m93 94 4 1 2-1v2l2 1-2 8h4l1-2 1 5h-2l1 3-3 1 1 3-2 2-3-1v-3h2l-4-8-2-2v-4h-2l1-2-1-1 2-2Z"/><path fill="#E44950" d="m105 31 2 3-2 3h5c2 5 2 5 1 9l-1 2h2l-1 5-5-1 2-2 1-5h-2l1 4h-8v-2h2v-4h3v-2h-3l3-10Z"/><path fill="#48ABF1" d="M153 178c2 4 2 7 2 11l-2 4-8-2 1 3-2 2-2-9h2l2-4h2v-2h5v-3Z"/><path fill="#58B5F5" d="M103 193h3v2l2 1-2 2v3h2l-2 4h2l3 2v7l-4 4 1 3-3 1-1-5h2l-1-6-2-1v-17Zm4 18 1 2 1-2h-2Z"/><path fill="#7AC7FA" d="M80 134h1v5h4v-2h2l1 8-4 1v-2h-2l-1 2-3 4h-2v-2l-3-3h4l-6-1 1-5 3 2 3-4 2 3v-6Z"/><path fill="#F25459" d="m154 122 2 6-1 2h8v-4h4l-1 4h9l-1 2h-17l-2 5c-4 3-6 2-10 1l5-4 3-9h-3v-2l4-1Z"/><path fill="#84C4ED" d="m57 158 3 3v3l-3 3-1 5 2 1-1 2-1 7h-3v-2h-2l2 6-5 2 5-19 1-4 3-7Z"/><path fill="#7CC8FA" d="m104 168 1 2 4 5 4-1-1 4 4 1v3h-2l-1 3h-2v-2h2l-2-2-4 1v-5l-2 4-8-9h2v-2l5-2Z"/><path fill="#4AABEF" d="M92 158h4l-1 8 3 1 1-5 1 3-1 2 3-1v2l-5 1-1 5-3-1-5-1-1-4 2-3-1-5 2-1 2 1v-2Z"/><path fill="#7DC5F0" d="M130 214h1v5l-5 5-3 5-3 3-2 2-2 1-2 4c-1-3-2-5-1-9 1-2 2-3 5-4h3l1-3a282 282 0 0 1 8-9Z"/><path fill="#62B4EA" d="M141 187c3 3 3 6 4 10l-4 2v2h-2v3h4l-1 4-6 1-1 3-4 1 1-3 9-23Z"/><path fill="#7DC7F7" d="M109 229h4v3c0 3 0 3 2 5l1-4 4-1v2h3v3l2 1h-3l-4 1 1 2h-2l-2 2h-5v2l-2-1 1-15Z"/><path fill="#EC3A3F" d="m191 59 5 1-1 3h-2l1 3 4 1v5h-4v3l-5-1-2-4 1-5h2l-1-2v-2l2-2Z"/><path fill="#56B1F0" d="M160 159v9l-1 9-6-1v-6h2l-1-2-2-6 8-3Z"/><path fill="#94D5FA" d="m98 223 4 2c-1 4-3 5-6 7l-1 4v2h-2l-1 2-2-5v2l-3 1 1-5-5 1 1-3h3l1-4 2 1 6 2-1-2v-2l3-3Z"/><path fill="#62BAF2" d="M83 222h10v2l5-2-1 4h-2l1 4-5 1-2-3-5-1h-4l-1-4 4-1Z"/><path fill="#5FB2EA" d="m122 192 2 1-8 21-1 3-5 10c0-6 1-10 4-15 2-4 2-8 1-12l-2-1h2l3-1 1-2 2-1 1-3Z"/><path fill="#7ECBFA" d="m120 150 4 4-1 2-2 5-2-1h-2l-4 4-1-2-3-1 2-1-1-3 2-4 3-1 2 4v-2l1-3 2-1Z"/><path fill="#F1565D" d="M137 11h2l1 5-7 1v2l-2-1-1 2 2 4-3-1v-2l-5 1-1 2h-2l2-7 3-1 1 3 1-7h8l1-1Z"/><path fill="#F9585D" d="m143 77 2 2-3 1 3 1v2l4 1h-3v2l-4 5-3-1v-2l-2-1-1-5v-4l7-1Z"/><path fill="#EB7B7F" d="m115 56 6 6 5-2 1 3 3 5 2 2-1 4-1-3-3-1v-2c-4-2-8-2-13-2h-6l1-3h8v-2h-2l-1 2-1-4 2-3Z"/><path fill="#84C9F6" d="m92 238 2 7c-8 2-15-1-22-5l1-2h6l1 3h4l1 2 1-3-2-1c3-2 5-2 8-1Z"/><path fill="#F95A60" d="M135 26h3l-1 3v6c1 2 2 3 5 3l-2 1-4 3h-6l2 2-4 1-1-4 5-4-2-4h2l3-7Z"/><path fill="#4FB1F7" d="m78 202 3-1 1 10 5 1 1 3-5-1-1 2-2-5-2 3-1-3 1-2-3-1 2-1h-6l-3-4c4-2 6-2 10-1Z"/><path fill="#F0595E" d="m126 119 1 3 6 2h3l3 1h-6l-2 6c-5 2-8 0-12-2l4-1v-2l1-1 2-6Z"/><path fill="#E53D43" d="M90 67h2c3 6 3 11 3 18h-2l-1 2-2-4 1-3h-2c-1-5-1-8 1-13Z"/><path fill="#66BAF4" d="m145 191 8 1v6l-1 3-2 2-1 2h-2l-1 3h-2c1-5 1-5 3-7l-1-4-1-6Z"/><path fill="#64BBF5" d="m152 165 3 2v3h-2v6l3 1v4h-8v2l-4 4h-2c1-4 1-7 3-10l6-2 1-10Z"/><path fill="#F54149" d="m181 21 3 2v2l2 1-1 1 3 2 1 6-5 1-1-5-4-1v2h-2v-2h-2l-1-4 5 2v-2l2-5Z"/><path fill="#F6393E" d="m113 25 1 2 5-2v3h4v2l-8 1-1-1-3 8-6-1c0-5 0-5 3-8l5-1v-3Z"/><path fill="#EC2F36" d="m123 105 2 2-1 6h2l2 1 1 3h-3l1-2-8 3-1-2-4-4 1-3h2v-2l6-2Z"/><path fill="#7BC7F6" d="M76 126h8l2 2-2 2 1 4-2 1v-2l-2-1 1-2-4-1 1 6c-3 2-5 2-9 2l-1-3h2l2-6 3 3v-5Z"/><path fill="#E9686E" d="M180 96c2 3 2 5 2 9l-1 3v2l2 1 1-2 3 2-1 5-1 3-3 5 1-11-2 1h-7l2-2c2-3 3-6 3-10l1-3v-3Z"/><path fill="#F56E74" d="M164 37c3 3 4 5 5 9h-2l-2 2h-3v-3l2-1-1-1-2 5h-3l-1-3-3-1 2-4 2 1 6-1v-3Z"/><path fill="#70BCEF" d="M163 155c3 3 4 4 4 8s-1 6-3 10l-5 1v-7l-2-4h3l5-1v-2h-2v-5Z"/><path fill="#85C7F0" d="m94 133 7 2v2h2l5 3h-2l-1 2-2 1v2l-5 1 2-5-4-2v5l-1-3-2-1h2l-1-7Z"/><path fill="#FA4148" d="M155 10h9v3h-2l-1 4-7 1c-2-2-3-4-3-7l4-1Z"/><path fill="#4DABEE" d="M88 144c3 0 4 1 6 3h4l1 3-4 1 1 6-3-1v-6l-3 1-4-1-1-3-1 4h-5c7-7 7-7 9-7Z"/><path fill="#75B9E7" d="m82 125-1 2-5-1 1 5h-3l-3 4-4-1 3-9c4-3 7-2 12 0Z"/><path fill="#87BCDD" d="m126 240-4 2-3 2c-7 3-13 3-20 3h-2c-6 0-6 0-8-2l14 1v-2l7-1 7-3h9Z"/><path fill="#EE5F63" d="M132 75h4v2l1 4v3l2 5 1 2-3 3-6 1 1-2c3-6 2-11 0-18Z"/><path fill="#EA747A" d="M155 113h2c6 2 11 2 17 2v2l-10 2-1 4-8-3v-7Z"/><path fill="#FB575B" d="M107 45h2l-1 7 4-1 1-2 6 1-2 2-3 5-7-3-1 2-2-2-4-5h6l1-4Z"/><path fill="#E0787C" d="M110 115h8c2 3 3 6 3 10h-2l-1 3v-9l-7-1-4 4c-4 0-7-1-10-4h8l5-1v-2Z"/><path fill="#E63C43" d="m182 99 4 1 1 2 2 1-1 7h-8v-5l1-3 1-3Z"/><path fill="#F23940" d="m196 56 4 1v9l-1 8-2-1 1-6h-2l-3-1-2-5h2v2h2v-3l1-4Z"/><path fill="#62BDFA" d="m82 152 4 1v10l2 2h-2l-2 1-1 3v-11h-2v5l-4-4h2l1-3 3 1v-2h-2l1-3Zm2 5 1 2Z"/><path fill="#E27B7C" d="M180 16c8 4 14 10 17 18l-1 2h-2l-1-2-3-3v-2l-1-2-5-2v-5l-5-1 1-3Z"/><path fill="#72C0F4" d="M97 228h3l1 2 6 2-1 4-2-1-5 2 4 3-3 1c-3-2-3-2-4-5v-3h-3l1-2 4-1-1-2Z"/><path fill="#EF7F83" d="m92 62 1 4h4v3l4 1-2 3c-2 4-3 7-3 11h-1v-2l-3-13-1-5 1-2Z"/><path fill="#E06066" d="m102 37 1 2-1 2h3v2h-3v4h-2l1 4h-2v2l-1 2v3l-3 3-2 1c5-21 5-21 9-25Z"/><path fill="#F4A9AD" d="M153 7h9v1h-2c-7 0-7 0-12 4l-1 2-5-1v-2h-2V9l-7 1c6-4 14-3 20-3Z"/><path fill="#67BEF9" d="m54 210 2 1 8-1v2l2 1 3 1 2 7-2 2-1-3-2 2-2-1 1-6h-7v-2h-5l1-3Z"/><path fill="#87BBDD" d="m60 217 1 2 2 1-1 3c0 4 1 6 3 9l3 2-1 2c-8-6-8-6-9-11h-2l-2-5 5 1 1-4Z"/><path fill="#82C8F3" d="m149 152-2 1 1 4c1 3 1 6-1 9l-5-1 1-4 2-1-1-4-4 1-1-4c4-3 6-2 10-1Z"/><path fill="#5BACE4" d="M124 147h6l1 2-5 2 1 2-4 1-2-2-4 4-2-1 1-2v-5l8-1Z"/><path fill="#F74C54" d="M99 94h3v2l3-1 2 1-2 4 1 2 1 3-1 2h-2l-1-2-4 1 1-8-2-1 1-3Z"/><path fill="#ED2B32" d="m134 64 8 4v5c-4 2-6 2-10 1v-4h3v-2h-2l1-4Z"/><path fill="#5DAFE1" d="m147 153 16 1v3h-6v-2l-4 1-2 6c-4-3-4-3-4-7v-2Z"/><path fill="#EF2F37" d="m193 87-4 10h-2l-1 2-4-2v-2h-2l1-4 2 1v2l2 1-1-3c5-5 5-5 9-5Z"/><path fill="#66B3E7" d="m129 160 7 2v2h10v3h-4l-3-1-4-1v2h-2l-1 2h-7l-1-2h7v-5h-2v-2Z"/><path fill="#57B3F2" d="M81 158h2l1 3-1 2c-2 2-2 2-2 5l1 3-2 2v-3l-4 1v-8l1-2 3 1 1-4Z"/><path fill="#66B2E8" d="m66 134 4 1v2l6-2 1 5-2 2-3-2-1 2-7-1 2-7Z"/><path fill="#EC3138" d="m137 24 11 1 2 2c-1 4-2 5-5 7v-5l-3 2v-2h-4l-1-5Z"/><path fill="#FB696D" d="m121 18 2 3-2 3h2l1-3h5v6h-4l-6 1c0-7 0-7 2-10Z"/><path fill="#DD7377" d="m169 46 3 9v12l8 4-2 2-9-4-1-5h2l-1-18Z"/><path fill="#E45558" d="m187 50 7 3v4l-3 1-2 5h-2V50Z"/><path fill="#6BC0F8" d="m133 149-1 5h2l1-3 2 2-1 6-5 1-2-6 1-3h-3v-2h6Z"/><path fill="#F5353E" d="m93 94 4 1 2-1v2l2 1-1 5-5 1-2-4h-2l1-2-1-1 2-2Z"/><path fill="#F06F73" d="M152 26c5 3 8 6 12 11l-2 1-3-1-4 1v-3l-1-5h-2v-4Z"/><path fill="#EC3941" d="m153 113 3 1v6h3l1 3-4 2-2-2-8-1 7-3 1-2h-2l1-4Z"/><path fill="#E3797B" d="M201 48c4 7 2 17 1 25h-1v-8h-2l2-17Z"/><path fill="#E77B7F" d="M163 126h4l-1 4h9l-1 2h-17l-2 4-2-6c3-2 6-1 10 0v-4Z"/><path fill="#EB3238" d="M88 94h5l-1 2v2l1 1v2l3 4c-5 0-6-1-9-4l-1-4 2-3Z"/><path fill="#FC4C52" d="m159 54 5 2h2v2l2 5h-3l-1 6-2-2v-3l-2-2h2l-1-4h-3l1-4Z"/><path fill="#EA6B70" d="m171 22 1 2h2l1 6h2l-1 4-2-1c-4-4-8-6-13-8l9-1 1-2Z"/><path fill="#F76163" d="m128 97 2 3h7l-1 4-10-1v-3l-6 1-1 2h-2l1-4 10-2Z"/><path fill="#FDA9AC" d="m147 46 3 1v5l-5-1-1 4-4 1-1-6 2-2h4l2-2Z"/><path fill="#EA7E83" d="m165 9 10 4 3 1 2 1-4 2v-2l-4 3-1 2-3-3 2-1v-4l-4 1-1-4Z"/><path fill="#E54148" d="m173 19 1 3c-3 3-5 3-9 3l-7-1c2-3 2-3 5-4h3l2-1h5Z"/><path fill="#6FC3FC" d="M76 183v2l2 5 1 5-3 1v-2l-2-5-5 2-2-5 5-1 1 3h2l1-5Z"/><path fill="#E43037" d="m166 117 10 1 1 3h-2v-2h-2l1 2-2 5-2 2-1-4v-2h3v-2l-7 1 1-4Z"/><path fill="#F5373D" d="m101 50 3 2 6 3v6h-5l-1-6-4-2-1 4-2-1c2-5 2-5 4-6Z"/><path fill="#F52D34" d="m129 33 4 4v2h-4l-2 7-7-1 2-1v-2l1-3 5-2 1-4Z"/><path fill="#E05E65" d="M140 9v2h2v2l5 1 1-3 2 2-3 3h-4l-1-2-3 1v-4l-3 2h-6l-2-2 5-1 3-1h4Z"/><path fill="#97D1F2" d="M50 186h5v3h2l-1 3v-2l-3 4h-5l-1 4 1-10h2v-2Z"/><path fill="#51ACEB" d="m119 180 4 2 1 3 2 1h-2l1 6-2 1-2-3-4-2 1-2 1-6Z"/><path fill="#F58C92" d="m85 82 1 4h3v2h3v2h2l2-4 3 4c-6 2-6 2-10 1l-1-4h-4l-1 8h-1v-4l1-3 2-6Z"/><path fill="#F8444B" d="M105 37h5c2 5 2 5 1 9l-1 2h2l-1 5-5-1 2-2 1-6h-2l-2-7Z"/><path fill="#5BB0E9" d="m109 154 2 1-1 7h-2l2 4h-2l-1 3c-2-2-2-2-2-5v-3l-1-2 3-3h2v-2Z"/><path fill="#EC343B" d="m150 52 15 1 1 3h-2l-1 2-1-3-1 1h-11l-1-2 1-2Z"/><path fill="#7DCCFB" d="M65 165h4l1 8-4 1-1-3-3-2-1 1-1-2-3 1v-3l9 1-1-1v-1Z"/><path fill="#97D6F9" d="m55 175 5 3 1 7h-9l-1-5h2l2 2v-7Z"/><path fill="#E57C80" d="m163 80 3 1 3 1h2l3 1 3 3v6l-2-3c-5-5-10-6-17-7l5-2Z"/><path fill="#FB353C" d="m116 32 4 1v2l1 2v5h-6c-1-4 0-6 1-10Z"/><path fill="#75BCEA" d="M131 231h1v5c-3 3-7 4-11 5l-4-1-1-2 2-2 4 1 5-1 4-5Z"/><path fill="#4FACE9" d="M83 228v7h-2l-13 1c1-3 3-3 5-5h3v2h2v-2h4l1-3Z"/><path fill="#54AEEE" d="M103 193h3v2l2 1-2 2v3h2l-2 4 4 1h-4l-1 2v-4l-3-1 1-10Z"/><path fill="#5FBBFA" d="M82 144h2c-1 4-1 5-4 8v3h-3v2h-5l-1-2h3v-2l4-2v-2l3-3 1-2Z"/><path fill="#FC7479" d="M151 57h5l-1 7-2-1-7 1-1-3h6v-4Z"/><path fill="#90C2E4" d="M119 203v4l-1 3-1 3-1 3-2 3-3 8h-1c0-6 1-10 4-15l2-5 3-4Z"/><path fill="#E64F54" d="m185 37 1 2h2l1-2 3 1-2 1-2 2v2l2 1h-2l-2 4-2-1v-7l1-3Z"/><path fill="#F65E64" d="m170 12-1 2 1 6-6 1 1-5h-2v-3l7-1Z"/><path fill="#59B3F2" d="m87 185 8 2 1 4 2 2v4h-2v-2l-5-1v-3h2l-6-4v-2Z"/><path fill="#F0393F" d="m166 74 6 2v2l-2 1-1 4-7-3v-4l2 1 2-3Z"/><path fill="#85BFE6" d="M72 238h7l1 3h4l4 4c-6 1-11-2-16-5v-2Z"/><path fill="#5FB9F9" d="m77 206 4 1 1 4 5 1 1 3-5-1-1 2-2-5-2 3-1-3 1-2-3-1 2-2Z"/><path fill="#DE696E" d="M193 87h3l-7 20c-1-5 0-8 1-12h2v-3l1-5Z"/><path fill="#DB4D54" d="M84 87h4v2l3 1-2 1-3 3 1 6h-2c-2-4-2-6-2-10l1-3Z"/><path fill="#FA464B" d="M188 83h2l2 2 3-1v2l-3 1c-4 2-5 3-7 6v2l-3-1 1-3h2l-1-3h2v-2h2v-3Z"/><path fill="#E35E62" d="M90 67h2c3 7 3 7 3 12l-5-3h-2l2-9Z"/><path fill="#F68285" d="M135 50h4l3 4h-2v2l4-1 2-4 1 2-4 5-5-1-1-4h-3l1-3Z"/><path fill="#F44B53" d="m132 45 6 2v3l-3 1v4l-7 1 1-3h3l1-3h-2l1-5Z"/><path fill="#EB3D44" d="M137 11h2l1 5-7 1v2l-2-1 1-2h-2l1-4h2l4-1Z"/><path fill="#78C7FB" d="m75 223 3 3h-2l-4 3v-4l-5 1 1 3h-2v-2h-3l1-3h2l3-1h6Z"/><path fill="#6DC3FC" d="M100 196h3v9h-2l-1 2-3-1-1 3-1-4 3-3 2-6Z"/><path fill="#89D0FB" d="M104 168c2 3 2 4 2 7l-1 2c-3-1-6-2-8-5h2v-2l5-2Z"/><path fill="#EE333A" d="m131 44 2 3h-2v3h2l-1 4h-6v-2l2-7 3-1Z"/><path fill="#EE3039" d="M198 44v7l-3-1-2 1-2-2 1-2h-2l1-3h7Z"/><path fill="#56B3F6" d="m113 189 3 2 2-2 4 1 1 2-1 3-3-1-2 1-2 1v-3l-4-1 2-1v-2Z"/><path fill="#7EC7F9" d="m127 168 3 3-1 7-1 2-1 2-2-1v-12l2-1Z"/><path fill="#74C3F6" d="m120 150 4 4c-1 3-2 3-5 4h-5v-2h3v-2l1-3 2-1Z"/><path fill="#EA5C61" d="M180 72h2l2 2h3l1 4-8 2v-8Z"/><path fill="#7DC9F9" d="M82 222h6v5h-8l-1-4 3-1Z"/><path fill="#57ACE4" d="M84 219h2l-1 3h-2l-1 2v-2l-3 3 2 1v3l-5 1v-4h2v-2c1-4 2-5 6-5Z"/><path fill="#F53A44" d="m186 83 2 1v2h-2l-1 5-6-2 1-4h2l4-2Z"/><path fill="#F5313B" d="m103 61 3 3-4 1v3l-4-1-2-4c4-3 4-3 7-2Z"/><path fill="#79B2D7" d="m109 244-1 3H91l-2-2 14 1v-2h6Z"/><path fill="#6CB7E9" d="M114 228h3l1 7h-2l-2 4c-2-5-2-5-1-9l1-2Z"/><path fill="#69B1E1" d="M149 176c0 6 0 6-3 9l-4 2c1-4 1-7 3-10l4-1Z"/><path fill="#68B0E0" d="m132 149 10 1c-1 3-2 4-5 6l-2-4-1 2h-2v-5Z"/><path fill="#E58081" d="M134 108h2l1 10h-5l-2-4h-6v-3l2 1h2l2 1 5 2-1-7Z"/><path fill="#EE4046" d="M150 26h2v4h2l2 2-1 4-4-2 1-2h-3v-2l-2-1h2l1-3Z"/><path fill="#E93642" d="m181 21 3 2-1 4h-2v2h-2v3h-2v-2h-2l-1-4 5 2v-2l2-5Z"/><path fill="#75C4F6" d="M116 205v7l-1 2-1 2-5 1c1-6 3-8 7-12Z"/><path fill="#7ABCE3" d="M48 202h5l-1 2 1 5-2 6-1-4-1-3-1-6Z"/><path fill="#5EB7F5" d="m101 184 6 2-1 4h2v2h-2l-4 4v-5l-1-7Z"/><path fill="#7FCCFB" d="m85 186 7 2 1 3-3 2v2l-3-1-1-4-1-2v-2Z"/><path fill="#61BAF6" d="m63 148 3 1v3l5-1-1 6-4-3v3l-3-1v-8Z"/><path fill="#82CEF9" d="M113 144v4l-2 1v6l-4 1-1-4 2-3v-4l5-1Z"/><path fill="#D8545D" d="M179 120h3c0 4 0 6-2 9-3 2-3 2-7 2l-3-1v-1h7v-2h2v-7Z"/><path fill="#FA4E54" d="M145 119h3v2l3 2v6l-3-1-1-3h-2v-2h-2v-2h2v-2Z"/><path fill="#D83B42" d="M129 102c7 1 7 1 9 4v10c-2-3-2-4-2-8h-2v-2l-10-2 5-2Z"/><path fill="#ED3C45" d="m143 82 3 4-4 5-3-1v-2l-2-1 3-1 1-2 2-2Z"/><path fill="#DF747B" d="M158 82v1l-3 1c-5 2-8 4-12 8v-4h2v-2l3-3 10-1Z"/><path fill="#F72930" d="M198 67v5h-4l-1 3-3-5c3-3 4-3 8-3Z"/><path fill="#EE2D35" d="m136 29 3 2 2-1v2l1 2 2 1-2 2h-4l-3-5 1-3Z"/><path fill="#7BBAE1" d="M137 198h1c1 10 1 10-3 14l-4 1 6-15Z"/><path fill="#80B4D6" d="M51 175h3v2h-2l1 9-5 2c0-5 1-9 3-13Z"/><path fill="#54B7F9" d="m86 168 2 4h3c3 0 3 0 5 2l-1 3-1-1-7-1v-2h-2l1-5Z"/><path fill="#E4777D" d="m139 126 5 1v3l2 1-1 6-3-1v-3l-3-7Z"/><path fill="#E38387" d="m127 126 5 1-1 4c-5 2-8 0-12-2h8v-3Z"/><path fill="#E1343A" d="m126 122-2 1v2h2l-1 2-2-1 1 3-5-1 1-6h6Z"/><path fill="#F2272E" d="M146 114h6v3h2l-1 3-2-1-1 2h-2v-2h-3l1-2 2 1-2-4Z"/><path fill="#E87076" d="M200 73c1 4 1 5-1 8l-1 3-1 2h-1v-2l-2-8 6-1v-2Z"/><path fill="#F62E36" d="M176 75h3l1 3h-2v2l-2 2c-3 0-5-2-8-4l6 1v-2h2v-2Z"/><path fill="#F28085" d="m189 62 1 3-2 1 1 8-6 1-1-2 2-1 2-4 1-5 2-1Z"/><path fill="#E28182" d="M128 12v7h-3l1-3-7 4-1-3 4-2 2-2 4-1Z"/><path fill="#62B4ED" d="m84 198 1 4h2l2 1 1 3h-4l-1 4c-1-4-2-8-1-12Z"/><path fill="#9ED7F7" d="m148 161 3 1 3 7-8-1 2-7Zm2 4 1 2Z"/><path fill="#E34953" d="M130 95c3 0 4 1 6 3l1 2-9 1 2-6Z"/><path fill="#F93237" d="m167 69 5 1-2 3v3l-6-1-1-2 4-4Z"/><path fill="#F25F63" d="m162 41 3 1-1 3h-2v3l3-1 2 3h-9v-2h3l1-7Z"/><path fill="#7ABAE1" d="M130 214h1v5l-5 5h-3v2h-2c1-4 3-5 6-8l3-4Z"/><path fill="#E6747C" d="M141 92h2l-1 12-4-4 1-6h2v-2Z"/><path fill="#FA757A" d="M181 78c7 0 7 0 10 2l-1 3-3 1-3-2v-2h-3v-2Z"/><path fill="#E7757B" d="m102 37 1 2-1 2h3v2h-3v4h-2v2h-2l4-12Z"/><path fill="#58AEE6" d="M95 233c2 3 3 5 3 9h-3v2h-2v-6h2l-1-2v-2l1-1Z"/><path fill="#E33C44" d="m167 45 2 1 1 7-5 2c0-4 0-6 2-10Z"/><path fill="#5DB8F5" d="M122 158h5l1 5-4 2c-2-2-2-2-2-5v-2Z"/><path fill="#E88388" d="m99 90 13 6-3 2v-2h-7v-2l-3-1v-3Z"/><path fill="#DC494E" d="m95 60 1 2c2 4 3 5 7 7h-6v-3h-4l2-6Z"/><path fill="#F7575C" d="m196 56 4 1-1 7h-3l-1-7 1-1Z"/><path fill="#F1636A" d="m138 40 5 3 2-1v6l-6-3 1-2-2-1v-2Z"/><path fill="#79C1F1" d="M109 229h4v8h-5l1-8Z"/><path fill="#70C5FB" d="m110 196 2 4h3v2l3 1-5 3c-3-3-3-3-3-7v-3Z"/><path fill="#4EB4F9" d="M68 196v2h-5l4 1h2l-4 3-3-1v-3h-2c2-4 4-3 8-2Z"/><path fill="#61B3EB" d="M124 170c2 4 2 7 2 11h-3v-2h-2l-1-3h3l1-6Z"/><path fill="#E53139" d="m183 113 1 4-4 2-6-3 9-3Z"/><path fill="#F22D36" d="M154 10h7l-1 3h-2l-3 1h-3l-1-3 3-1Z"/><path fill="#62B6F2" d="m122 228 1 2 4 7h-4l-1-2-3-1 3-6Z"/><path fill="#5DB9F6" d="m55 207 7 1v3l-6 1-1-5Z"/><path fill="#8AC4EA" d="M62 145h1l1 8-6 4 4-12Z"/><path fill="#ED3D46" d="M137 116c3 3 4 4 5 8v3l-7-3 4-1-3-3 1-4Z"/><path fill="#E26E74" d="m144 106 11 6-3 2-7-4-1-4Z"/><path fill="#EE3036" d="m191 59 5 1-1 3h-2l1 5-4-2-1-5 2-2Z"/><path fill="#E33C44" d="m147 54 2 4-3 4 2 3h-4l-1 2v-8l4-1v-4Z"/><path fill="#80CDFC" d="M66 215h2v3l3-1v5h-3v-2l-2 2-2-1 2-6Z"/><path fill="#76BBE7" d="M127 180c1 4 0 6-1 10h-2v-5l-2-1 1-3 4 1v-2Z"/><path fill="#62B5ED" d="m118 147 3 1c0 4 0 4-2 6l-2 2-2-1 1-2v-5l2-1Z"/><path fill="#E17176" d="m95 106 3 1 1 6h-2l1 4h-3v-11Z"/><path fill="#E9434B" d="m199 47 2 1-1 9h-5l2-5h1l1-5Z"/><path fill="#F48086" d="m166 40 3 4c-1 3-2 3-5 4h-2v-3l2-1 2-4Z"/><path fill="#E57479" d="m180 16 7 5v4h-3v-5l-5-1 1-3Z"/><path fill="#FB5B61" d="m173 17 2 1v5h2l1 5-4-2-2-8 1-1Z"/><path fill="#E58D8F" d="M156 7h6v1h-2c-7 0-7 0-12 4l-1 2-2-1c2-6 5-6 11-6Z"/><path fill="#89CDF8" d="m60 217 1 2 2 1-2 7-2-1v-8l1-1Z"/><path fill="#99CEED" d="m57 158 3 3c0 3 0 3-2 5l-2 2-2-1 3-9Z"/><path fill="#85C1E5" d="m86 128 8 4-1 3h-3v-3l-5-1 1-3Z"/><path fill="#EA353E" d="m163 125-1 2-1 3h-6v-3c4-3 4-3 8-2Z"/><path fill="#F35E65" d="m166 122 2 1v5l-1-2h-4v4l-3-1c1-3 3-5 6-7Z"/><path fill="#E78085" d="m184 110 3 1-1 5-1 3-3 5v-8h1l1-6Z"/><path fill="#F6474C" d="m191 91 2 1-1 3h-2l-1 7-3 1-1-4h2v-2h2v-2l2-4Z"/><path fill="#FC6D70" d="m155 64 1 3-7 6c1-5 1-5 3-7l3-2Z"/><path fill="#F8696B" d="m121 46 4 1v7l-3 1-1-9Z"/><path fill="#EB8286" d="M182 34c2 3 2 6 2 10-3-1-3-2-4-5l-1-2-1-2 4-1Z"/><path fill="#E94C51" d="M164 37v3l-5 2-1-3h-2v-2h8Z"/><path fill="#F85C64" d="m186 25 4 2v4l3 1-4 1-1-2-4-4 2-2Z"/><path fill="#FC565E" d="m137 15 1 2-2 4-7-1 2-4 2 3v-2l4-2Z"/><path fill="#72BDF2" d="m114 148 1 2 2 1-2 1-4 3-1-6 4-1Z"/><path fill="#50A8E5" d="m69 141 3 4-2 2v-2l-6-1v-3h5Z"/><path fill="#7DB3D6" d="m82 125-1 2h-6l-4 1 1-4c4-1 6 0 10 1Z"/><path fill="#F63136" d="M142 68v5l-5 2 1-6-2-1h6Z"/><path fill="#F6565B" d="m148 53 2 1v1l5 1-4 1v4h-5l1-2 1-6Z"/><path fill="#E2797F" d="M197 36c3 3 3 5 4 8l-1 4c-3-4-3-7-3-12Z"/><path fill="#E4787C" d="M113 22v6l-5 3-2-1 7-8Z"/><path fill="#61B6F1" d="M144 211h2c0 8 0 8-3 10l-2 1-2-3 4-1 1-7Z"/><path fill="#7BBFEF" d="M53 184h6l-1 7-1-2h-2v-3h-2v-2Z"/><path fill="#4DA9EB" d="m153 165 7 2-1 7c-3-1-3-3-4-6l-2-3Z"/><path fill="#7FCCFC" d="m78 144 3 1-1 4-4 1v-2l-3-3 5 1v-2Z"/><path fill="#6BBEF3" d="m96 139 5 1-1 4h-3v2l-3-1 2-6Z"/><path fill="#EC4A4F" d="m142 89 1 3h-2v2h-2l-1 4-4-4 5-1v-2h3v-2Z"/><path fill="#88CDF2" d="M135 227v2l2 1-3 2-1 4h-1v-5h-2l1-3 4-1Z"/><path fill="#6DBCEF" d="m88 227-1 4h-3v2l-2-1v-1l-2-3 8-1Z"/><path fill="#71BBEF" d="m91 224 2 4h3v2l-5 1-3-5 3-2Z"/><path fill="#84D0FC" d="m78 196 1 3 4-1v4l-7 1 2-7Z"/><path fill="#56A6DC" d="M48 194h3v3c0 3 0 3 2 5l-2 1-3-1v-8Z"/><path fill="#5FBBF9" d="m75 192 2 2-3 1-2 4c-3-1-3-3-4-6h3l4-1Z"/><path fill="#4BA9EB" d="m70 172 2 1-1 5h-3l-1 2-1-5h2v-2l2-1Z"/><path fill="#9DC8E3" d="M163 155c3 3 4 4 4 8 0 3 0 3-2 5v-8h-2v-5Z"/><path fill="#50ACEE" d="m87 151 1 2h2l1 5-6-1 2-6Z"/><path fill="#6FC2FB" d="M87 135h6l-1 7-3-3-1-1-1-3Z"/><path fill="#DE5C5D" d="M87 100h6l1 3 2 2c-4 0-4 0-7-2l-2-3Z"/><path fill="#F48387" d="m96 86 3 4c-6 2-6 2-10 1v-1h5l2-4Z"/><path fill="#FC4648" d="M144 72h3l-4 2v2l-5 1c1-5 1-5 6-5Z"/><path fill="#FC646A" d="m155 46 2 1v4l-5-1v2h-2v-4h5v-2Z"/><path fill="#FA4953" d="m118 43 3 1 1 6-2 1v-2l-4-2v-2h2v-2Z"/><path fill="#7CB4D7" d="m138 226 2 1c-1 4-3 5-7 7l2-7 3 1v-2Z"/><path fill="#5EB5EB" d="m69 225 3 1h-2l-1 4h-5l-1-3h3l1-1 2-1Z"/><path fill="#4FAAEC" d="m113 184 3 2h-3l5 4-3 2-1-2h-3l2-6Z"/><path fill="#7CCBFA" d="m68 185 5 1v3l-4 2-2-5 1-1Z"/><path fill="#78B2D9" d="m154 153 9 1v3h-6v-2h-3v-2Z"/><path fill="#6FC4FB" d="M104 150v2l2 4v3h-2l-1 2v-10l1-1Z"/><path fill="#63B2E5" d="m93 133 2 4v8l-3-3v-5l1-2v-2Z"/><path fill="#8CD2FD" d="M76 126c2 3 3 5 3 9l-3 2-2-5 2-2v-4Z"/><path fill="#FC4950" d="m111 109 3 1v2l4 2v1h-6l-1-6Z"/><path fill="#DD3B3F" d="M161 79v2l-8 1 1-3h7Z"/><path fill="#E1777D" d="M132 75h4v9h-2l-2-9Z"/><path fill="#F0343B" d="m129 33 4 4v2h-4l-1 2h-3v-2l2-1 2-2v-3Z"/><path fill="#E2363E" d="M109 30v5l2 1-6 1 1-6 3-1Z"/><path fill="#F1494F" d="M185 29h3l1 6-5 1 1-7Z"/><path fill="#E47278" d="m152 26 7 6-5 1v-3h-2v-4Z"/><path fill="#F0474B" d="m173 19 1 3-5 3-1-5 5-1Z"/><path fill="#ED2F38" d="m150 14 3 3v2h-6l-1-4 4-1Z"/><path fill="#F96A70" d="m148 11 2 2-3 3h-4l-1-2-3 1v-2c4-1 5-1 8 1l1-3Z"/><path fill="#86D0FB" d="M110 236h4l-1 4h-3v5l-2-1c0-4 0-5 2-8Z"/><path fill="#5DB8F2" d="M79 234h6l-2 4-6 1 2-5Z"/><path fill="#7BB5E1" d="m112 215 2 1-3 11h-1a853 853 0 0 1 1-7l1-5Z"/><path fill="#6EC4FB" d="m105 160 1 4-3 6-2-2 4-8Z"/><path fill="#4AABF2" d="M127 160h2v2h2v5l-4-1v-6Z"/><path fill="#F83F47" d="m173 123 1 4h3v2h-6v-5l2-1Z"/><path fill="#E28081" d="m128 104 6 2-8 2-1 3-1-4 4-1v-2Z"/><path fill="#E7888A" d="m128 97 1 2h-2l-1 2h-6l-1 2h-2l1-4 10-2Z"/><path fill="#EC6269" d="m178 92 3 1-1 2 2 1 4 3-3 1-2-1v-3h-2l-1-4Z"/><path fill="#EE5D64" d="m95 84 1 3-2 3h-2v-2h-3l1-3h3l2-1Z"/><path fill="#F34549" d="M155 56h5l3 4-1 2h-2v-3h-4l-1-3Z"/><path fill="#F74C51" d="m129 38 3 1v2l-2 1 2 2-4 1-1-4 2-3Z"/><path fill="#E2757B" d="m161 24 10 1-1 4-9-4v-1Z"/><path fill="#86CFF9" d="M88 227h1v6l-6 1 1-3h3l1-4Z"/><path fill="#71B6E6" d="m52 215 3 1v2l3-1 1 4-5-1-2-5Z"/><path fill="#6AC3F7" d="m81 211 6 1 1 3-5-1-1 2-2-4 1-1Z"/><path fill="#78BBEB" d="M148 208v7l-2 1v-5l-3-1 5-2Z"/><path fill="#57A8E3" d="m135 208 3 2-6 7-1-4 4-1v-4Z"/><path fill="#5CB0EB" d="m80 201 2 6h-2l-1 2-1-7 2-1Z"/><path fill="#77B6DD" d="m122 192 2 1-3 10-2-4 3-7Z"/><path fill="#8BC4E5" d="m141 187 2 2-1 5h-2v4l-2-1 3-10Z"/><path fill="#5BB5F5" d="M125 150h4l2 2-3 4-4-1v-2l2-1-1-2Z"/><path fill="#F4363B" d="m116 112 5 2 1-2 1 4-4 2-3-6Z"/><path fill="#D74F54" d="M111 60h2l1 2 3-1 1 3h-7l-2-2h2v-2Z"/><path fill="#F03A42" d="m131 44 2 3h-2v3h2v2h-3l-1-7 2-1Z"/><path fill="#E88C8F" d="m187 22 6 5-1 3-5-4v-4Z"/><path fill="#92C5E3" d="m54 220 5 1 1 7-2-1v-2h-2l-2-5Z"/><path fill="#46A8EE" d="m100 215 1 2-1 2h2l-1 4-3-1-1-4h2l1-3Z"/><path fill="#72C4F9" d="M81 202h2l2 6-1 2-3-1v-7Z"/><path fill="#71BFF4" d="M105 170h5v6l-5-2v-4Z"/><path fill="#FD797B" d="m157 118 6 1v4l-6-2v-3Z"/><path fill="#FD3C44" d="m142 112 1 4h2v3l-3 1-2-7 2-1Z"/><path fill="#FA5153" d="m150 74 1 2 2 1 1 4h-3l-2-4 1-3Z"/><path fill="#F7444C" d="m156 61 1 3 4 1v2h-5l-1-5 1-1Z"/><path fill="#FD7376" d="M137 61h6l-1 4-3 1-2-5Z"/><path fill="#F46065" d="m118 56 3 1 2 5-5-1-1-2 1-3Z"/><path fill="#FB8B8D" d="m147 46 3 1v5l-5-2 2-4Z"/><path fill="#FA5058" d="M102 43h4v5h-4v-5Z"/><path fill="#FD6B6F" d="m195 40-2 3h-5l-1-3h8Z"/><path fill="#56B7F6" d="M69 212h4v2h2v3h-4l-2-5Z"/><path fill="#7EC9F6" d="m58 189 2 4h-7l-1-3 5 1 1-2Z"/><path fill="#52ABE6" d="M56 168h7l-1 3-6 1v-4Z"/><path fill="#61BFFB" d="m79 165 1 5-4 1-1-5 4-1Z"/><path fill="#6FC2F8" d="m57 166 7 1 1 3-3-1-1 1-1-2-3 1v-3Z"/><path fill="#62C0FD" d="M97 161h2l-1 6-5-1 4-5Z"/><path fill="#6CC0F5" d="m86 141 3 1-1 4h-4l-1-3 3-2Z"/><path fill="#E28388" d="m148 135 6 2-2 2-7-1 3-3Z"/><path fill="#EF9B9F" d="m134 85 2 4c0 3 0 3-2 5l-3 1 1-2 2-8Z"/><path fill="#E93A3F" d="m186 83 2 1v2h-2l-1 5h-2c1-6 1-6 3-8Z"/><path fill="#EE3D44" d="M132 74h5l1 3 4-1v2l-5 1-1-4-4-1Z"/><path fill="#F26D71" d="m146 51 4 1-2 2-1 4-4-1 2-2 1-4Z"/><path fill="#ED3239" d="m181 21 3 2-1 4h-4l2-6Z"/><path fill="#66B3E4" d="M86 233h2l-1 5h-4l3-5Z"/><path fill="#90C9EF" d="m149 204 2 4-2 5h-1v-5l-2-1 3-3Z"/><path fill="#70C5FA" d="M139 204h4l-1 4h-5l2-4Z"/><path fill="#71C2FC" d="m91 198 2 2 4 1v2h-2l-1 2c-2-2-2-4-3-7Z"/><path fill="#63BDFB" d="m113 189 4 2-1 5-1-3-4-1 2-1v-2Z"/><path fill="#8CC1E1" d="M130 172h2l-3 9-2-2 3-7Z"/><path fill="#5CB1F3" d="m99 160 3 1 1 5-4 1v-7Z"/><path fill="#65B2E8" d="m61 164 1 2 3-1 2 1-1 3h-2v-2h-5l-1-2 3-1Z"/><path fill="#71C0F8" d="m62 158 1 4-2 3-2-1 1-5 2-1Z"/><path fill="#61B4ED" d="M82 144h2l-1 5-5 2 1-3 2-2 1-2Z"/><path fill="#5EB6F2" d="m67 136 4 2v4l-4-1v-5Z"/><path fill="#E44146" d="m152 124 2 1v4h-2l-1 3c-1-4-1-5 1-8Z"/><path fill="#F3353E" d="M137 105h3v2l3 1-6 3v-6Z"/><path fill="#DE525D" d="m140 101 1 3 3 1-1 3-3-1-1-5 1-1Z"/><path fill="#F74D53" d="m143 77 2 2-6 3-1-4 5-1Z"/><path fill="#EE9E9F" d="m97 73 1 3-1 1-1 7h-1l-1-9 3-2Z"/><path fill="#FB3D47" d="M191 61h2v2l3-1v2l2 1-4 2-3-6Z"/><path fill="#F44347" d="m118 25 1 3h4v2l-5 1v-6Z"/><path fill="#EB4D55" d="M128 12h2l1 5-4 1 1-6Z"/><path fill="#EB6D73" d="M126 12h2v7h-3l1-3h-2l2-4Z"/></svg>